<svg width="20" height="20" viewBox="0 0 20 20" fill="none" xmlns="http://www.w3.org/2000/svg">
<g clip-path="url(#clip0_133_198)">
<path d="M10 20C15.5228 20 20 15.5228 20 10C20 4.47715 15.5228 0 10 0C4.47715 0 0 4.47715 0 10C0 15.5228 4.47715 20 10 20Z" fill="#FF431F"/>
<path d="M14.3334 7.66666H12.6334C12.6667 7.4 12.8334 7.23333 13.1667 7.06666L13.4667 6.9C14.0334 6.63333 14.3334 6.3 14.3334 5.76666C14.3373 5.61418 14.3063 5.46282 14.2428 5.32416C14.1792 5.1855 14.0848 5.06322 13.9667 4.96666C13.6881 4.78896 13.3638 4.69629 13.0334 4.7C12.7647 4.69835 12.5003 4.76731 12.2667 4.9C12.0483 5.04602 11.8659 5.23979 11.7334 5.46666L12.2334 5.96666C12.3035 5.80237 12.4193 5.66164 12.567 5.56119C12.7147 5.46075 12.8882 5.4048 13.0667 5.4C13.4001 5.4 13.5667 5.56666 13.5667 5.76666C13.5667 5.96666 13.4667 6.13333 13.1334 6.3L12.9334 6.4C12.5578 6.56498 12.2348 6.83023 12.0001 7.16666C11.8149 7.49098 11.7226 7.86003 11.7334 8.23333V8.36666H14.3334V7.66666Z" fill="white"/>
<path d="M14.1 9.20001H11.2667L9.8667 11.6333H12.7L14.1 14.0667L15.5 11.6333L14.1 9.20001Z" fill="white"/>
<path d="M10.1 13.2667C9.23365 13.2667 8.40276 12.9225 7.79014 12.3099C7.17752 11.6973 6.83336 10.8664 6.83336 9.99999C6.83336 9.13362 7.17752 8.30273 7.79014 7.69011C8.40276 7.07749 9.23365 6.73333 10.1 6.73333L11.2334 4.39999C10.8594 4.33218 10.4801 4.29871 10.1 4.29999C8.58829 4.29999 7.13847 4.90053 6.06952 5.96948C5.00056 7.03844 4.40002 8.48826 4.40002 9.99999C4.40002 11.5117 5.00056 12.9615 6.06952 14.0305C7.13847 15.0995 8.58829 15.7 10.1 15.7C11.3062 15.7053 12.4836 15.3322 13.4667 14.6333L12.2334 12.4667C11.6429 12.9833 10.8846 13.2677 10.1 13.2667Z" fill="white"/>
</g>
<defs>
<clipPath id="clip0_133_198">
<rect width="20" height="20" fill="white"/>
</clipPath>
</defs>
</svg>
