<svg width="36" height="36" viewBox="0 0 36 36" fill="none" xmlns="http://www.w3.org/2000/svg">
<g clip-path="url(#clip0_283_35)">
<path d="M36 0H0V36H36V0Z" fill="#F7DF1E"/>
<path d="M24.1829 28.125C24.908 29.309 25.8515 30.1793 27.52 30.1793C28.9217 30.1793 29.8172 29.4787 29.8172 28.5107C29.8172 27.3507 28.8972 26.9399 27.3543 26.265L26.5086 25.9021C24.0675 24.8621 22.4457 23.5593 22.4457 20.805C22.4457 18.2679 24.3789 16.3364 27.4 16.3364C29.5509 16.3364 31.0972 17.085 32.2115 19.045L29.5772 20.7364C28.9972 19.6964 28.3715 19.2867 27.4 19.2867C26.4092 19.2867 25.7812 19.9153 25.7812 20.7364C25.7812 21.7513 26.4097 22.1621 27.8612 22.7907L28.7069 23.153C31.5812 24.3856 33.204 25.6421 33.204 28.4673C33.204 31.513 30.8115 33.1816 27.5983 33.1816C24.4566 33.1816 22.4269 31.6844 21.4337 29.7221L24.1829 28.125ZM12.2326 28.4181C12.764 29.361 13.2475 30.1581 14.4097 30.1581C15.5212 30.1581 16.2223 29.7233 16.2223 28.0324V16.5296H19.6052V28.0781C19.6052 31.581 17.5515 33.1753 14.5537 33.1753C11.8452 33.1753 10.2766 31.7736 9.47888 30.0853L12.2326 28.4181Z" fill="black"/>
</g>
<defs>
<clipPath id="clip0_283_35">
<rect width="36" height="36" fill="white"/>
</clipPath>
</defs>
</svg>
