<svg xmlns="http://www.w3.org/2000/svg" fill="none" viewBox="0 0 560 478"><g clip-path="url(#a)"><rect width="560" height="478" fill="#FEF5FE" rx="16"/><rect width="430" height="131" x="65" y="174" fill="#FEF5FE" rx="12"/><rect width="430" height="131" x="65" y="174" stroke="#F700FF" rx="12"/><rect width="194" height="58" x="81" y="190" fill="#FFEAFE" rx="6"/><rect width="194" height="58" x="81" y="190" stroke="#FD2BF2" stroke-dasharray="4 4" rx="6"/><path fill="#A10099" d="M156.018 224v-9.8h3.486c1.848 0 2.982.938 2.982 2.38 0 1.05-.546 1.722-1.302 2.058 1.022.336 1.75 1.134 1.75 2.506 0 1.75-1.19 2.856-3.206 2.856h-3.71Zm1.19-1.078h2.31c1.442 0 2.212-.63 2.212-1.792 0-1.176-.77-1.806-2.212-1.806h-2.31v3.598Zm0-4.662h2.254c1.19 0 1.834-.504 1.834-1.512s-.644-1.498-1.82-1.498h-2.268v3.01Zm11.969 5.852c-2.156 0-3.528-1.33-3.528-3.472v-6.44h1.176v6.496c0 1.442.924 2.338 2.352 2.338 1.456 0 2.366-.896 2.366-2.338V214.2h1.176v6.44c0 2.142-1.386 3.472-3.542 3.472Zm6.752-.112v-1.078h1.736v-7.644h-1.736V214.2h4.662v1.078h-1.722v7.644h1.722V224h-4.662Zm8.371 0v-9.8h1.204v8.722h4.886V224h-6.09Zm8.762 0v-9.8h2.828c2.604 0 4.578 1.778 4.578 4.9 0 3.122-1.974 4.9-4.578 4.9h-2.828Zm1.204-1.078h1.596c1.764 0 3.36-1.12 3.36-3.822s-1.596-3.822-3.36-3.822h-1.596v7.644Z"/><rect width="194" height="58" x="285" y="190" fill="#FFEAFE" rx="6"/><rect width="194" height="58" x="285" y="190" stroke="#FD2BF2" stroke-dasharray="4 4" rx="6"/><path fill="#A10099" d="M327.074 224v-9.8h2.828c2.604 0 4.578 1.778 4.578 4.9 0 3.122-1.974 4.9-4.578 4.9h-2.828Zm1.204-1.078h1.596c1.764 0 3.36-1.12 3.36-3.822s-1.596-3.822-3.36-3.822h-1.596v7.644Zm8.994 1.078v-1.078h1.736v-7.644h-1.736V214.2h4.662v1.078h-1.722v7.644h1.722V224h-4.662Zm11.269.112c-2.352 0-3.626-1.316-3.766-3.318h1.19c.126 1.358.896 2.24 2.576 2.24 1.358 0 2.31-.518 2.31-1.708 0-2.632-5.74-1.008-5.74-4.634 0-1.554 1.358-2.604 3.332-2.604 1.946 0 3.304 1.134 3.458 2.898h-1.176c-.112-1.106-.98-1.82-2.282-1.82-1.33 0-2.128.588-2.128 1.526 0 2.618 5.782.84 5.782 4.634 0 1.778-1.512 2.786-3.556 2.786Zm8.671-.112v-8.722h-3.108V214.2h7.42v1.078h-3.108V224h-1.204Zm6.995 0v-9.8h3.598c1.946 0 3.122 1.036 3.122 2.73 0 1.148-.616 1.96-1.554 2.408.77.42 1.26 1.232 1.316 2.226l.168 2.436h-1.162l-.168-2.366c-.056-.952-.672-1.624-1.582-1.624h-2.548V224h-1.19Zm1.19-5.068h2.408c1.386 0 1.904-.896 1.904-1.862 0-.966-.518-1.806-1.904-1.806h-2.408v3.668Zm8.594 5.068v-1.078h1.736v-7.644h-1.736V214.2h4.662v1.078h-1.722v7.644h1.722V224h-4.662Zm8.007 0v-9.8h3.486c1.848 0 2.982.938 2.982 2.38 0 1.05-.546 1.722-1.302 2.058 1.022.336 1.75 1.134 1.75 2.506 0 1.75-1.19 2.856-3.206 2.856h-3.71Zm1.19-1.078h2.31c1.442 0 2.212-.63 2.212-1.792 0-1.176-.77-1.806-2.212-1.806h-2.31v3.598Zm0-4.662h2.254c1.19 0 1.834-.504 1.834-1.512s-.644-1.498-1.82-1.498h-2.268v3.01Zm11.969 5.852c-2.156 0-3.528-1.33-3.528-3.472v-6.44h1.176v6.496c0 1.442.924 2.338 2.352 2.338 1.456 0 2.366-.896 2.366-2.338V214.2h1.176v6.44c0 2.142-1.386 3.472-3.542 3.472Zm9.161-.112v-8.722h-3.108V214.2h7.42v1.078h-3.108V224h-1.204Zm6.98 0v-1.078h1.736v-7.644h-1.736V214.2h4.662v1.078h-1.722v7.644h1.722V224h-4.662Zm11.62.112c-2.506 0-4.214-2.016-4.214-5.012 0-2.996 1.708-5.012 4.214-5.012 2.464 0 4.13 2.016 4.13 5.012 0 2.996-1.666 5.012-4.13 5.012Zm-.014-1.078c1.736 0 2.912-1.582 2.912-3.934 0-2.352-1.176-3.934-2.912-3.934-1.764 0-2.968 1.582-2.968 3.934 0 2.352 1.204 3.934 2.968 3.934Zm6.895.966v-9.8h1.358l4.536 7.854V214.2h1.176v9.8h-1.358l-4.522-7.84V224h-1.19Z"/><path fill="#EB02E0" d="M87.4 277.2V274H81v6.4h3.2v-3.2h3.2Zm3.2-3.2v3.2h3.2v3.2H97V274h-6.4Z"/><path fill="#EB02E0" d="M90.6 277.2h-3.2v3.2h-3.2v3.2h3.2v3.2h3.2v-3.2h3.2v-3.2h-3.2v-3.2Zm-6.4 6.4H81v6.4h6.4v-3.2h-3.2v-3.2Zm6.4 3.2v3.2H97v-6.4h-3.2v3.2h-3.2Z"/><path fill="#A10099" d="M109.942 287.112c-.849 0-1.601-.191-2.254-.574-.644-.392-1.153-.961-1.526-1.708-.364-.747-.546-1.657-.546-2.73s.182-1.983.546-2.73c.373-.747.887-1.311 1.54-1.694.653-.392 1.4-.588 2.24-.588 1.055 0 1.918.294 2.59.882.672.588 1.078 1.381 1.218 2.38h-1.526c-.084-.597-.327-1.073-.728-1.428-.401-.364-.919-.546-1.554-.546-.877 0-1.573.327-2.086.98-.504.653-.756 1.568-.756 2.744 0 1.176.252 2.091.756 2.744.513.653 1.209.98 2.086.98.625 0 1.148-.177 1.568-.532.42-.364.667-.845.742-1.442h1.47c-.065.663-.266 1.241-.602 1.736a3.455 3.455 0 0 1-1.316 1.134c-.541.261-1.162.392-1.862.392Zm12.067-.112v-4.396h-4.312V287h-1.456v-9.8h1.456v4.116h4.312V277.2h1.456v9.8h-1.456Zm3.641 0 3.514-9.8h1.386l3.514 9.8h-1.498l-.84-2.492h-3.738l-.854 2.492h-1.484Zm2.772-3.766h2.87l-1.428-4.228-1.442 4.228ZM136.34 287v-1.288h1.666v-7.224h-1.666V277.2h4.788v1.288h-1.652v7.224h1.652V287h-4.788Zm7.838 0v-9.8h1.596l4.186 7.406V277.2h1.428v9.8h-1.596l-4.186-7.392V287h-1.428Zm13.79.112a3.779 3.779 0 0 1-2.072-.588c-.607-.401-1.092-.975-1.456-1.722-.355-.747-.532-1.652-.532-2.716 0-1.064.182-1.965.546-2.702.373-.747.882-1.316 1.526-1.708.653-.392 1.4-.588 2.24-.588.728 0 1.363.135 1.904.406.541.271.975.649 1.302 1.134.336.476.541 1.036.616 1.68h-1.498c-.093-.588-.341-1.055-.742-1.4-.401-.355-.929-.532-1.582-.532-.859 0-1.549.331-2.072.994-.523.653-.784 1.563-.784 2.73 0 1.185.257 2.109.77 2.772.523.653 1.209.98 2.058.98.467 0 .882-.093 1.246-.28.364-.187.649-.434.854-.742a1.81 1.81 0 0 0 .322-1.036c0-.495-.224-.742-.672-.742h-1.722v-1.176h2.142c.523 0 .929.145 1.218.434.299.28.448.681.448 1.204V287h-1.33v-1.33a2.575 2.575 0 0 1-.504.63 2.99 2.99 0 0 1-.91.574c-.364.159-.803.238-1.316.238Zm10.175 0c-1.101 0-1.974-.313-2.618-.938-.644-.625-.966-1.493-.966-2.604v-6.37h1.4v6.412c0 .691.196 1.232.588 1.624.401.383.933.574 1.596.574.672 0 1.204-.191 1.596-.574.401-.392.602-.933.602-1.624V277.2h1.4v6.37c0 1.111-.327 1.979-.98 2.604-.644.625-1.517.938-2.618.938Zm5.594-.112 3.514-9.8h1.386l3.514 9.8h-1.498l-.84-2.492h-3.738l-.854 2.492h-1.484Zm2.772-3.766h2.87l-1.428-4.228-1.442 4.228Zm7.89 3.766v-9.8h3.696c.998 0 1.773.247 2.324.742.56.495.84 1.171.84 2.03 0 .56-.136 1.036-.406 1.428a2.813 2.813 0 0 1-1.064.938c.364.205.658.495.882.868.224.373.354.803.392 1.288l.196 2.506h-1.428l-.196-2.38c-.028-.439-.178-.793-.448-1.064-.271-.28-.616-.42-1.036-.42h-2.296V287h-1.456Zm1.456-5.152h2.198c.42 0 .756-.079 1.008-.238.261-.168.448-.383.56-.644.121-.261.182-.537.182-.826 0-.448-.136-.84-.406-1.176-.262-.336-.71-.504-1.344-.504h-2.198v3.388Zm8.117 5.152v-9.8h2.884c.877 0 1.666.187 2.366.56.7.373 1.255.924 1.666 1.652.42.728.63 1.624.63 2.688s-.21 1.96-.63 2.688c-.411.728-.966 1.279-1.666 1.652s-1.489.56-2.366.56h-2.884Zm1.456-1.288h1.344c.569 0 1.101-.121 1.596-.364.495-.243.891-.63 1.19-1.162.308-.532.462-1.227.462-2.086 0-.868-.154-1.563-.462-2.086-.299-.532-.695-.919-1.19-1.162a3.573 3.573 0 0 0-1.596-.364h-1.344v7.224Zm16.45 1.288v-9.8h1.456v8.512h4.774V287h-6.23Zm8.803 0v-1.288h1.666v-7.224h-1.666V277.2h4.788v1.288h-1.652v7.224h1.652V287h-4.788Zm7.894 0v-9.8h3.556c.914 0 1.647.215 2.198.644.55.429.826 1.013.826 1.75 0 .523-.122.952-.364 1.288a2.328 2.328 0 0 1-.896.756c.494.168.905.453 1.232.854.326.401.49.947.49 1.638 0 .877-.294 1.577-.882 2.1-.588.513-1.391.77-2.408.77h-3.752Zm1.442-1.288h2.114c1.372 0 2.058-.546 2.058-1.638 0-1.092-.686-1.638-2.058-1.638h-2.114v3.276Zm0-4.55h2.044c1.129 0 1.694-.457 1.694-1.372s-.565-1.372-1.694-1.372h-2.044v2.744Zm8.217 5.838v-9.8h3.696c.998 0 1.773.247 2.324.742.56.495.84 1.171.84 2.03 0 .56-.136 1.036-.406 1.428a2.813 2.813 0 0 1-1.064.938c.364.205.658.495.882.868.224.373.354.803.392 1.288l.196 2.506h-1.428l-.196-2.38c-.028-.439-.178-.793-.448-1.064-.271-.28-.616-.42-1.036-.42h-2.296V287h-1.456Zm1.456-5.152h2.198c.42 0 .756-.079 1.008-.238.261-.168.448-.383.56-.644.121-.261.182-.537.182-.826 0-.448-.136-.84-.406-1.176-.262-.336-.71-.504-1.344-.504h-2.198v3.388Zm7.431 5.152 3.514-9.8h1.386l3.514 9.8h-1.498l-.84-2.492h-3.738l-.854 2.492h-1.484Zm2.772-3.766h2.87l-1.428-4.228-1.442 4.228Zm7.89 3.766v-9.8h3.696c.998 0 1.773.247 2.324.742.56.495.84 1.171.84 2.03 0 .56-.136 1.036-.406 1.428a2.813 2.813 0 0 1-1.064.938c.364.205.658.495.882.868.224.373.354.803.392 1.288l.196 2.506h-1.428l-.196-2.38c-.028-.439-.178-.793-.448-1.064-.271-.28-.616-.42-1.036-.42h-2.296V287h-1.456Zm1.456-5.152h2.198c.42 0 .756-.079 1.008-.238.261-.168.448-.383.56-.644.121-.261.182-.537.182-.826 0-.448-.136-.84-.406-1.176-.262-.336-.71-.504-1.344-.504h-2.198v3.388ZM267.51 287v-1.288h1.666v-7.224h-1.666V277.2h4.788v1.288h-1.652v7.224h1.652V287h-4.788Zm8.076 0v-9.8h6.314v1.288h-4.858v2.814h3.948v1.288h-3.948v3.122h5.012V287h-6.468Zm12.507.112c-1.167 0-2.072-.303-2.716-.91-.644-.616-.999-1.433-1.064-2.45h1.428c.056.625.271 1.129.644 1.512.383.373.952.56 1.708.56.616 0 1.115-.121 1.498-.364.392-.252.588-.644.588-1.176 0-.355-.103-.635-.308-.84-.196-.205-.462-.369-.798-.49a9.035 9.035 0 0 0-1.092-.322 26.805 26.805 0 0 1-1.176-.308 5.207 5.207 0 0 1-1.092-.476 2.493 2.493 0 0 1-.798-.798c-.196-.336-.294-.765-.294-1.288 0-.532.14-.999.42-1.4.289-.401.686-.714 1.19-.938.513-.224 1.097-.336 1.75-.336.672 0 1.26.121 1.764.364.513.243.919.588 1.218 1.036.308.439.481.957.518 1.554h-1.414c-.047-.504-.257-.905-.63-1.204-.364-.308-.849-.462-1.456-.462-.597 0-1.064.126-1.4.378a1.161 1.161 0 0 0-.504.994c0 .355.098.635.294.84.205.196.476.355.812.476.336.112.7.21 1.092.294.401.084.798.182 1.19.294.401.112.77.271 1.106.476.336.196.602.467.798.812.205.336.308.779.308 1.33 0 .597-.154 1.111-.462 1.54-.308.42-.733.742-1.274.966-.532.224-1.148.336-1.848.336Z"/><path fill="#5382A1" d="M381.931 288.561s-.894.533.636.713c1.853.217 2.8.186 4.843-.21 0 0 .537.345 1.287.644-4.579 2.014-10.363-.116-6.766-1.147Zm-.56-2.628s-1.002.761.529.924c1.979.209 3.543.227 6.249-.308 0 0 .374.389.962.602-5.536 1.661-11.702.131-7.74-1.218Z"/><path fill="#E76F00" d="M386.088 281.476c1.128 1.332-.297 2.532-.297 2.532s2.865-1.518 1.549-3.418c-1.228-1.772-2.171-2.652 2.93-5.688 0 0-8.007 2.052-4.182 6.574Z"/><path fill="#5382A1" d="M392.143 290.504s.662.559-.728.992c-2.643.821-11 1.07-13.322.033-.834-.373.731-.89 1.223-.998.514-.115.807-.093.807-.093-.928-.671-5.999 1.317-2.576 1.886 9.336 1.554 17.018-.699 14.596-1.82Zm-9.783-7.294s-4.251 1.036-1.505 1.413c1.159.159 3.47.123 5.623-.062a42.96 42.96 0 0 0 3.526-.476s-.621.272-1.07.587c-4.316 1.165-12.655.623-10.255-.569 2.031-1.007 3.681-.893 3.681-.893Zm7.626 4.374c4.388-2.34 2.359-4.588.943-4.285a3.247 3.247 0 0 0-.502.138s.129-.207.375-.297c2.802-1.01 4.956 2.981-.904 4.562 0 0 .068-.062.088-.118Z"/><path fill="#E76F00" d="M387.34 270s2.431 2.495-2.305 6.33c-3.797 3.078-.865 4.832-.001 6.837-2.217-2.052-3.843-3.859-2.752-5.54 1.602-2.468 6.039-3.665 5.058-7.627Z"/><path fill="#5382A1" d="M382.792 293.925c4.212.276 10.68-.154 10.833-2.199 0 0-.294.775-3.481 1.391-3.595.694-8.029.613-10.659.168 0 0 .538.457 3.307.64Z"/><path fill="url(#b)" d="M425.959 270c-5.666 0-5.727 2.199-5.727 2.652v2.748h5.836v.825h-8.154c-1.735 0-3.914 1.054-3.914 5.727 0 4.293 1.7 5.952 3.416 5.952h2.039v-2.863c0-1.198.593-3.416 3.361-3.416h5.788c.852 0 3.253-.37 3.253-3.143v-5.284c0-.688-.118-3.198-5.898-3.198Zm-3.218 1.848a1.05 1.05 0 1 1 .002 2.102 1.05 1.05 0 0 1-.002-2.102Z"/><path fill="url(#c)" d="M426.041 294c5.664 0 5.734-2.241 5.734-2.652V288.6h-5.843v-.825h8.154c1.748 0 3.914-1.081 3.914-5.727 0-5.089-2.299-5.952-3.416-5.952h-2.039v2.863c0 1.198-.574 3.416-3.361 3.416h-5.789c-.849 0-3.252.414-3.252 3.143v5.284c0 1.141.697 3.198 5.898 3.198Zm3.218-1.848c-.581 0-1.05-.469-1.05-1.05 0-.581.469-1.05 1.05-1.05.581 0 1.05.469 1.05 1.05 0 .581-.469 1.05-1.05 1.05Z"/><path fill="#F7DF1E" d="M479 270h-24v24h24v-24Z"/><path fill="#000" d="M471.122 288.75c.483.789 1.112 1.37 2.225 1.37.934 0 1.531-.467 1.531-1.113 0-.773-.613-1.047-1.642-1.497l-.564-.242c-1.627-.693-2.708-1.562-2.708-3.398 0-1.691 1.289-2.979 3.303-2.979 1.434 0 2.464.499 3.207 1.806l-1.756 1.127c-.387-.693-.804-.966-1.451-.966-.661 0-1.08.419-1.08.966 0 .677.419.951 1.387 1.37l.564.241c1.916.822 2.998 1.66 2.998 3.543 0 2.031-1.595 3.143-3.737 3.143-2.095 0-3.448-.998-4.11-2.306l1.833-1.065Zm-7.967.196c.354.628.677 1.16 1.451 1.16.741 0 1.209-.29 1.209-1.418v-7.668h2.255v7.699c0 2.335-1.369 3.398-3.368 3.398-1.805 0-2.851-.935-3.383-2.06l1.836-1.111Z"/><path stroke="#F600FF" d="M280 0v174"/><rect width="25" height="25" x="267.5" y="105.5" fill="#FEF5FE" rx="12.5"/><rect width="25" height="25" x="267.5" y="105.5" stroke="#F600FF" rx="12.5"/><path stroke="#F600FF" stroke-linecap="round" stroke-linejoin="round" d="m278.6 123 2.8-10m2.8 2.5 2.8 2.5-2.8 2.5m-8.4 0L273 118l2.8-2.5"/><rect width="25" height="25" x="267.5" y="41.5" fill="#FEF5FE" rx="12.5"/><rect width="25" height="25" x="267.5" y="41.5" stroke="#F600FF" rx="12.5"/><path stroke="#F600FF" stroke-linecap="round" stroke-linejoin="round" d="m278.6 59 2.8-10m2.8 2.5L287 54l-2.8 2.5m-8.4 0L273 54l2.8-2.5"/><path fill="#F600FF" d="M277.067 20h5.866c.161 0 .295.043.404.13.109.086.163.187.163.302a.34.34 0 0 1-.021.114.41.41 0 0 1-.064.113l-2.933 3.522a.53.53 0 0 1-.213.145.75.75 0 0 1-.538 0 .53.53 0 0 1-.213-.145l-2.933-3.522a.41.41 0 0 1-.064-.113.34.34 0 0 1-.021-.114c0-.115.054-.216.163-.302a.629.629 0 0 1 .404-.13Zm0 64h5.866c.161 0 .295.043.404.13.109.086.163.187.163.302a.34.34 0 0 1-.021.114.41.41 0 0 1-.064.113l-2.933 3.522a.53.53 0 0 1-.213.145.75.75 0 0 1-.538 0 .53.53 0 0 1-.213-.145l-2.933-3.522a.41.41 0 0 1-.064-.114.34.34 0 0 1-.021-.113c0-.115.054-.216.163-.302a.629.629 0 0 1 .404-.13Zm0 64h5.866c.161 0 .295.043.404.13.109.086.163.187.163.302a.345.345 0 0 1-.021.114.414.414 0 0 1-.064.113l-2.933 3.522a.532.532 0 0 1-.213.145.738.738 0 0 1-.269.049.738.738 0 0 1-.269-.049.532.532 0 0 1-.213-.145l-2.933-3.522a.414.414 0 0 1-.064-.113.345.345 0 0 1-.021-.114c0-.115.054-.216.163-.302a.626.626 0 0 1 .404-.13Z"/><path stroke="#F600FF" d="M280 305v174"/><path fill="#F600FF" d="M277.067 325h5.866c.161 0 .295.043.404.13.109.086.163.187.163.302a.345.345 0 0 1-.021.114.414.414 0 0 1-.064.113l-2.933 3.522a.532.532 0 0 1-.213.145.738.738 0 0 1-.269.049.738.738 0 0 1-.269-.049.532.532 0 0 1-.213-.145l-2.933-3.522a.414.414 0 0 1-.064-.113.345.345 0 0 1-.021-.114c0-.115.054-.216.163-.302a.626.626 0 0 1 .404-.13Zm0 64h5.866c.161 0 .295.043.404.13.109.086.163.187.163.302a.345.345 0 0 1-.021.114.414.414 0 0 1-.064.113l-2.933 3.522a.532.532 0 0 1-.213.145.738.738 0 0 1-.269.049.738.738 0 0 1-.269-.049.532.532 0 0 1-.213-.145l-2.933-3.522a.414.414 0 0 1-.064-.113.345.345 0 0 1-.021-.114c0-.115.054-.216.163-.302a.626.626 0 0 1 .404-.13Zm0 64h5.866c.161 0 .295.043.404.13.109.086.163.187.163.302a.345.345 0 0 1-.021.114.414.414 0 0 1-.064.113l-2.933 3.522a.532.532 0 0 1-.213.145.738.738 0 0 1-.269.049.738.738 0 0 1-.269-.049.532.532 0 0 1-.213-.145l-2.933-3.522a.414.414 0 0 1-.064-.113.345.345 0 0 1-.021-.114c0-.115.054-.216.163-.302a.626.626 0 0 1 .404-.13Z"/><g clip-path="url(#d)"><path fill="#F600FF" d="M268 347h24v24h-24z"/><path fill="#FB94FF" d="M269.755 350.532c-.68 0-.952-.464-.952-1.32v-.224c0-.856.272-1.32.952-1.32h.136c.684 0 .952.464.952 1.32v.224c0 .856-.268 1.32-.952 1.32h-.136Zm.132-.308c.436 0 .616-.324.616-.972v-.304c0-.648-.18-.972-.616-.972h-.124c-.432 0-.616.324-.616.972v.304c0 .648.184.972.616.972h.124Zm1.824.276v-.308h.58v-1.908c-.044.064-.144.096-.252.096h-.356v-.308h.316c.18 0 .276-.076.3-.372h.332v2.492h.532v.308h-1.452Zm4.044.032c-.68 0-.952-.464-.952-1.32v-.224c0-.856.272-1.32.952-1.32h.136c.684 0 .952.464.952 1.32v.224c0 .856-.268 1.32-.952 1.32h-.136Zm.132-.308c.436 0 .616-.324.616-.972v-.304c0-.648-.18-.972-.616-.972h-.124c-.432 0-.616.324-.616.972v.304c0 .648.184.972.616.972h.124Zm1.824.276v-.308h.58v-1.908c-.044.064-.144.096-.252.096h-.356v-.308h.316c.18 0 .276-.076.3-.372h.332v2.492h.532v.308h-1.452Zm4.044.032c-.68 0-.952-.464-.952-1.32v-.224c0-.856.272-1.32.952-1.32h.136c.684 0 .952.464.952 1.32v.224c0 .856-.268 1.32-.952 1.32h-.136Zm.132-.308c.436 0 .616-.324.616-.972v-.304c0-.648-.18-.972-.616-.972h-.124c-.432 0-.616.324-.616.972v.304c0 .648.184.972.616.972h.124Zm1.824.276v-.308h.58v-1.908c-.044.064-.144.096-.252.096h-.356v-.308h.316c.18 0 .276-.076.3-.372h.332v2.492h.532v.308h-1.452Zm4.044.032c-.68 0-.952-.464-.952-1.32v-.224c0-.856.272-1.32.952-1.32h.136c.684 0 .952.464.952 1.32v.224c0 .856-.268 1.32-.952 1.32h-.136Zm.132-.308c.436 0 .616-.324.616-.972v-.304c0-.648-.18-.972-.616-.972h-.124c-.432 0-.616.324-.616.972v.304c0 .648.184.972.616.972h.124Zm1.824.276v-.308h.58v-1.908c-.044.064-.144.096-.252.096h-.356v-.308h.316c.18 0 .276-.076.3-.372h.332v2.492h.532v.308h-1.452Zm-19.956 4.032c-.68 0-.952-.464-.952-1.32v-.224c0-.856.272-1.32.952-1.32h.136c.684 0 .952.464.952 1.32v.224c0 .856-.268 1.32-.952 1.32h-.136Zm.132-.308c.436 0 .616-.324.616-.972v-.304c0-.648-.18-.972-.616-.972h-.124c-.432 0-.616.324-.616.972v.304c0 .648.184.972.616.972h.124Zm1.824.276v-.308h.58v-1.908c-.044.064-.144.096-.252.096h-.356v-.308h.316c.18 0 .276-.076.3-.372h.332v2.492h.532v.308h-1.452Zm4.044.032c-.68 0-.952-.464-.952-1.32v-.224c0-.856.272-1.32.952-1.32h.136c.684 0 .952.464.952 1.32v.224c0 .856-.268 1.32-.952 1.32h-.136Zm.132-.308c.436 0 .616-.324.616-.972v-.304c0-.648-.18-.972-.616-.972h-.124c-.432 0-.616.324-.616.972v.304c0 .648.184.972.616.972h.124Zm1.824.276v-.308h.58v-1.908c-.044.064-.144.096-.252.096h-.356v-.308h.316c.18 0 .276-.076.3-.372h.332v2.492h.532v.308h-1.452Zm4.044.032c-.68 0-.952-.464-.952-1.32v-.224c0-.856.272-1.32.952-1.32h.136c.684 0 .952.464.952 1.32v.224c0 .856-.268 1.32-.952 1.32h-.136Zm.132-.308c.436 0 .616-.324.616-.972v-.304c0-.648-.18-.972-.616-.972h-.124c-.432 0-.616.324-.616.972v.304c0 .648.184.972.616.972h.124Zm1.824.276v-.308h.58v-1.908c-.044.064-.144.096-.252.096h-.356v-.308h.316c.18 0 .276-.076.3-.372h.332v2.492h.532v.308h-1.452Zm4.044.032c-.68 0-.952-.464-.952-1.32v-.224c0-.856.272-1.32.952-1.32h.136c.684 0 .952.464.952 1.32v.224c0 .856-.268 1.32-.952 1.32h-.136Zm.132-.308c.436 0 .616-.324.616-.972v-.304c0-.648-.18-.972-.616-.972h-.124c-.432 0-.616.324-.616.972v.304c0 .648.184.972.616.972h.124Zm1.824.276v-.308h.58v-1.908c-.044.064-.144.096-.252.096h-.356v-.308h.316c.18 0 .276-.076.3-.372h.332v2.492h.532v.308h-1.452Zm-19.956 4.032c-.68 0-.952-.464-.952-1.32v-.224c0-.856.272-1.32.952-1.32h.136c.684 0 .952.464.952 1.32v.224c0 .856-.268 1.32-.952 1.32h-.136Zm.132-.308c.436 0 .616-.324.616-.972v-.304c0-.648-.18-.972-.616-.972h-.124c-.432 0-.616.324-.616.972v.304c0 .648.184.972.616.972h.124Zm1.824.276v-.308h.58v-1.908c-.044.064-.144.096-.252.096h-.356v-.308h.316c.18 0 .276-.076.3-.372h.332v2.492h.532v.308h-1.452Zm4.044.032c-.68 0-.952-.464-.952-1.32v-.224c0-.856.272-1.32.952-1.32h.136c.684 0 .952.464.952 1.32v.224c0 .856-.268 1.32-.952 1.32h-.136Zm.132-.308c.436 0 .616-.324.616-.972v-.304c0-.648-.18-.972-.616-.972h-.124c-.432 0-.616.324-.616.972v.304c0 .648.184.972.616.972h.124Zm1.824.276v-.308h.58v-1.908c-.044.064-.144.096-.252.096h-.356v-.308h.316c.18 0 .276-.076.3-.372h.332v2.492h.532v.308h-1.452Zm4.044.032c-.68 0-.952-.464-.952-1.32v-.224c0-.856.272-1.32.952-1.32h.136c.684 0 .952.464.952 1.32v.224c0 .856-.268 1.32-.952 1.32h-.136Zm.132-.308c.436 0 .616-.324.616-.972v-.304c0-.648-.18-.972-.616-.972h-.124c-.432 0-.616.324-.616.972v.304c0 .648.184.972.616.972h.124Zm1.824.276v-.308h.58v-1.908c-.044.064-.144.096-.252.096h-.356v-.308h.316c.18 0 .276-.076.3-.372h.332v2.492h.532v.308h-1.452Zm4.044.032c-.68 0-.952-.464-.952-1.32v-.224c0-.856.272-1.32.952-1.32h.136c.684 0 .952.464.952 1.32v.224c0 .856-.268 1.32-.952 1.32h-.136Zm.132-.308c.436 0 .616-.324.616-.972v-.304c0-.648-.18-.972-.616-.972h-.124c-.432 0-.616.324-.616.972v.304c0 .648.184.972.616.972h.124Zm1.824.276v-.308h.58v-1.908c-.044.064-.144.096-.252.096h-.356v-.308h.316c.18 0 .276-.076.3-.372h.332v2.492h.532v.308h-1.452Zm-19.956 4.032c-.68 0-.952-.464-.952-1.32v-.224c0-.856.272-1.32.952-1.32h.136c.684 0 .952.464.952 1.32v.224c0 .856-.268 1.32-.952 1.32h-.136Zm.132-.308c.436 0 .616-.324.616-.972v-.304c0-.648-.18-.972-.616-.972h-.124c-.432 0-.616.324-.616.972v.304c0 .648.184.972.616.972h.124Zm1.824.276v-.308h.58v-1.908c-.044.064-.144.096-.252.096h-.356v-.308h.316c.18 0 .276-.076.3-.372h.332v2.492h.532v.308h-1.452Zm4.044.032c-.68 0-.952-.464-.952-1.32v-.224c0-.856.272-1.32.952-1.32h.136c.684 0 .952.464.952 1.32v.224c0 .856-.268 1.32-.952 1.32h-.136Zm.132-.308c.436 0 .616-.324.616-.972v-.304c0-.648-.18-.972-.616-.972h-.124c-.432 0-.616.324-.616.972v.304c0 .648.184.972.616.972h.124Zm1.824.276v-.308h.58v-1.908c-.044.064-.144.096-.252.096h-.356v-.308h.316c.18 0 .276-.076.3-.372h.332v2.492h.532v.308h-1.452Zm4.044.032c-.68 0-.952-.464-.952-1.32v-.224c0-.856.272-1.32.952-1.32h.136c.684 0 .952.464.952 1.32v.224c0 .856-.268 1.32-.952 1.32h-.136Zm.132-.308c.436 0 .616-.324.616-.972v-.304c0-.648-.18-.972-.616-.972h-.124c-.432 0-.616.324-.616.972v.304c0 .648.184.972.616.972h.124Zm1.824.276v-.308h.58v-1.908c-.044.064-.144.096-.252.096h-.356v-.308h.316c.18 0 .276-.076.3-.372h.332v2.492h.532v.308h-1.452Zm4.044.032c-.68 0-.952-.464-.952-1.32v-.224c0-.856.272-1.32.952-1.32h.136c.684 0 .952.464.952 1.32v.224c0 .856-.268 1.32-.952 1.32h-.136Zm.132-.308c.436 0 .616-.324.616-.972v-.304c0-.648-.18-.972-.616-.972h-.124c-.432 0-.616.324-.616.972v.304c0 .648.184.972.616.972h.124Zm1.824.276v-.308h.58v-1.908c-.044.064-.144.096-.252.096h-.356v-.308h.316c.18 0 .276-.076.3-.372h.332v2.492h.532v.308h-1.452Zm-19.956 4.032c-.68 0-.952-.464-.952-1.32v-.224c0-.856.272-1.32.952-1.32h.136c.684 0 .952.464.952 1.32v.224c0 .856-.268 1.32-.952 1.32h-.136Zm.132-.308c.436 0 .616-.324.616-.972v-.304c0-.648-.18-.972-.616-.972h-.124c-.432 0-.616.324-.616.972v.304c0 .648.184.972.616.972h.124Zm1.824.276v-.308h.58v-1.908c-.044.064-.144.096-.252.096h-.356v-.308h.316c.18 0 .276-.076.3-.372h.332v2.492h.532v.308h-1.452Zm4.044.032c-.68 0-.952-.464-.952-1.32v-.224c0-.856.272-1.32.952-1.32h.136c.684 0 .952.464.952 1.32v.224c0 .856-.268 1.32-.952 1.32h-.136Zm.132-.308c.436 0 .616-.324.616-.972v-.304c0-.648-.18-.972-.616-.972h-.124c-.432 0-.616.324-.616.972v.304c0 .648.184.972.616.972h.124Zm1.824.276v-.308h.58v-1.908c-.044.064-.144.096-.252.096h-.356v-.308h.316c.18 0 .276-.076.3-.372h.332v2.492h.532v.308h-1.452Zm4.044.032c-.68 0-.952-.464-.952-1.32v-.224c0-.856.272-1.32.952-1.32h.136c.684 0 .952.464.952 1.32v.224c0 .856-.268 1.32-.952 1.32h-.136Zm.132-.308c.436 0 .616-.324.616-.972v-.304c0-.648-.18-.972-.616-.972h-.124c-.432 0-.616.324-.616.972v.304c0 .648.184.972.616.972h.124Zm1.824.276v-.308h.58v-1.908c-.044.064-.144.096-.252.096h-.356v-.308h.316c.18 0 .276-.076.3-.372h.332v2.492h.532v.308h-1.452Zm4.044.032c-.68 0-.952-.464-.952-1.32v-.224c0-.856.272-1.32.952-1.32h.136c.684 0 .952.464.952 1.32v.224c0 .856-.268 1.32-.952 1.32h-.136Zm.132-.308c.436 0 .616-.324.616-.972v-.304c0-.648-.18-.972-.616-.972h-.124c-.432 0-.616.324-.616.972v.304c0 .648.184.972.616.972h.124Zm1.824.276v-.308h.58v-1.908c-.044.064-.144.096-.252.096h-.356v-.308h.316c.18 0 .276-.076.3-.372h.332v2.492h.532v.308h-1.452Zm-19.956 4.032c-.68 0-.952-.464-.952-1.32v-.224c0-.856.272-1.32.952-1.32h.136c.684 0 .952.464.952 1.32v.224c0 .856-.268 1.32-.952 1.32h-.136Zm.132-.308c.436 0 .616-.324.616-.972v-.304c0-.648-.18-.972-.616-.972h-.124c-.432 0-.616.324-.616.972v.304c0 .648.184.972.616.972h.124Zm1.824.276v-.308h.58v-1.908c-.044.064-.144.096-.252.096h-.356v-.308h.316c.18 0 .276-.076.3-.372h.332v2.492h.532v.308h-1.452Zm4.044.032c-.68 0-.952-.464-.952-1.32v-.224c0-.856.272-1.32.952-1.32h.136c.684 0 .952.464.952 1.32v.224c0 .856-.268 1.32-.952 1.32h-.136Zm.132-.308c.436 0 .616-.324.616-.972v-.304c0-.648-.18-.972-.616-.972h-.124c-.432 0-.616.324-.616.972v.304c0 .648.184.972.616.972h.124Zm1.824.276v-.308h.58v-1.908c-.044.064-.144.096-.252.096h-.356v-.308h.316c.18 0 .276-.076.3-.372h.332v2.492h.532v.308h-1.452Zm4.044.032c-.68 0-.952-.464-.952-1.32v-.224c0-.856.272-1.32.952-1.32h.136c.684 0 .952.464.952 1.32v.224c0 .856-.268 1.32-.952 1.32h-.136Zm.132-.308c.436 0 .616-.324.616-.972v-.304c0-.648-.18-.972-.616-.972h-.124c-.432 0-.616.324-.616.972v.304c0 .648.184.972.616.972h.124Zm1.824.276v-.308h.58v-1.908c-.044.064-.144.096-.252.096h-.356v-.308h.316c.18 0 .276-.076.3-.372h.332v2.492h.532v.308h-1.452Zm4.044.032c-.68 0-.952-.464-.952-1.32v-.224c0-.856.272-1.32.952-1.32h.136c.684 0 .952.464.952 1.32v.224c0 .856-.268 1.32-.952 1.32h-.136Zm.132-.308c.436 0 .616-.324.616-.972v-.304c0-.648-.18-.972-.616-.972h-.124c-.432 0-.616.324-.616.972v.304c0 .648.184.972.616.972h.124Zm1.824.276v-.308h.58v-1.908c-.044.064-.144.096-.252.096h-.356v-.308h.316c.18 0 .276-.076.3-.372h.332v2.492h.532v.308h-1.452Z"/><path fill="#F600FF" d="M274 351h12v16h-12z"/><path fill="#FEF5FE" d="M278.557 362.019h3.038a.736.736 0 0 0 .541-.218.734.734 0 0 0 .218-.542v-2.278a.732.732 0 0 0-.218-.541.732.732 0 0 0-.541-.218v-.76c0-.418-.149-.775-.446-1.073a1.465 1.465 0 0 0-1.073-.446c-.418 0-.775.149-1.073.446a1.465 1.465 0 0 0-.446 1.073v.76a.732.732 0 0 0-.541.218.733.733 0 0 0-.219.541v2.278c0 .216.073.396.219.542a.736.736 0 0 0 .541.218Zm.759-3.797v-.76c0-.215.073-.396.219-.541a.732.732 0 0 1 .541-.218c.215 0 .396.072.541.218a.732.732 0 0 1 .218.541v.76h-1.519Zm.76 8.278a1.466 1.466 0 0 1-.475-.076c-1.709-.57-3.069-1.623-4.082-3.161S274 360.07 274 358.297v-3.588c0-.317.092-.601.275-.855.184-.253.421-.436.712-.55l4.557-1.709c.178-.063.355-.095.532-.095.177 0 .354.032.532.095l4.557 1.709c.291.114.528.297.712.55.183.254.275.538.275.855v3.588c0 1.773-.506 3.428-1.519 4.966-1.013 1.538-2.374 2.591-4.082 3.161a1.466 1.466 0 0 1-.475.076Z"/></g><path stroke="#F600FF" d="M267.5 346.5h25v25h-25z"/><g clip-path="url(#e)"><path fill="#F600FF" d="M268 411h24v24h-24z"/><path fill="#FB94FF" d="M269.755 414.532c-.68 0-.952-.464-.952-1.32v-.224c0-.856.272-1.32.952-1.32h.136c.684 0 .952.464.952 1.32v.224c0 .856-.268 1.32-.952 1.32h-.136Zm.132-.308c.436 0 .616-.324.616-.972v-.304c0-.648-.18-.972-.616-.972h-.124c-.432 0-.616.324-.616.972v.304c0 .648.184.972.616.972h.124Zm1.824.276v-.308h.58v-1.908c-.044.064-.144.096-.252.096h-.356v-.308h.316c.18 0 .276-.076.3-.372h.332v2.492h.532v.308h-1.452Zm4.044.032c-.68 0-.952-.464-.952-1.32v-.224c0-.856.272-1.32.952-1.32h.136c.684 0 .952.464.952 1.32v.224c0 .856-.268 1.32-.952 1.32h-.136Zm.132-.308c.436 0 .616-.324.616-.972v-.304c0-.648-.18-.972-.616-.972h-.124c-.432 0-.616.324-.616.972v.304c0 .648.184.972.616.972h.124Zm1.824.276v-.308h.58v-1.908c-.044.064-.144.096-.252.096h-.356v-.308h.316c.18 0 .276-.076.3-.372h.332v2.492h.532v.308h-1.452Zm4.044.032c-.68 0-.952-.464-.952-1.32v-.224c0-.856.272-1.32.952-1.32h.136c.684 0 .952.464.952 1.32v.224c0 .856-.268 1.32-.952 1.32h-.136Zm.132-.308c.436 0 .616-.324.616-.972v-.304c0-.648-.18-.972-.616-.972h-.124c-.432 0-.616.324-.616.972v.304c0 .648.184.972.616.972h.124Zm1.824.276v-.308h.58v-1.908c-.044.064-.144.096-.252.096h-.356v-.308h.316c.18 0 .276-.076.3-.372h.332v2.492h.532v.308h-1.452Zm4.044.032c-.68 0-.952-.464-.952-1.32v-.224c0-.856.272-1.32.952-1.32h.136c.684 0 .952.464.952 1.32v.224c0 .856-.268 1.32-.952 1.32h-.136Zm.132-.308c.436 0 .616-.324.616-.972v-.304c0-.648-.18-.972-.616-.972h-.124c-.432 0-.616.324-.616.972v.304c0 .648.184.972.616.972h.124Zm1.824.276v-.308h.58v-1.908c-.044.064-.144.096-.252.096h-.356v-.308h.316c.18 0 .276-.076.3-.372h.332v2.492h.532v.308h-1.452Zm-19.956 4.032c-.68 0-.952-.464-.952-1.32v-.224c0-.856.272-1.32.952-1.32h.136c.684 0 .952.464.952 1.32v.224c0 .856-.268 1.32-.952 1.32h-.136Zm.132-.308c.436 0 .616-.324.616-.972v-.304c0-.648-.18-.972-.616-.972h-.124c-.432 0-.616.324-.616.972v.304c0 .648.184.972.616.972h.124Zm1.824.276v-.308h.58v-1.908c-.044.064-.144.096-.252.096h-.356v-.308h.316c.18 0 .276-.076.3-.372h.332v2.492h.532v.308h-1.452Zm4.044.032c-.68 0-.952-.464-.952-1.32v-.224c0-.856.272-1.32.952-1.32h.136c.684 0 .952.464.952 1.32v.224c0 .856-.268 1.32-.952 1.32h-.136Zm.132-.308c.436 0 .616-.324.616-.972v-.304c0-.648-.18-.972-.616-.972h-.124c-.432 0-.616.324-.616.972v.304c0 .648.184.972.616.972h.124Zm1.824.276v-.308h.58v-1.908c-.044.064-.144.096-.252.096h-.356v-.308h.316c.18 0 .276-.076.3-.372h.332v2.492h.532v.308h-1.452Zm4.044.032c-.68 0-.952-.464-.952-1.32v-.224c0-.856.272-1.32.952-1.32h.136c.684 0 .952.464.952 1.32v.224c0 .856-.268 1.32-.952 1.32h-.136Zm.132-.308c.436 0 .616-.324.616-.972v-.304c0-.648-.18-.972-.616-.972h-.124c-.432 0-.616.324-.616.972v.304c0 .648.184.972.616.972h.124Zm1.824.276v-.308h.58v-1.908c-.044.064-.144.096-.252.096h-.356v-.308h.316c.18 0 .276-.076.3-.372h.332v2.492h.532v.308h-1.452Zm4.044.032c-.68 0-.952-.464-.952-1.32v-.224c0-.856.272-1.32.952-1.32h.136c.684 0 .952.464.952 1.32v.224c0 .856-.268 1.32-.952 1.32h-.136Zm.132-.308c.436 0 .616-.324.616-.972v-.304c0-.648-.18-.972-.616-.972h-.124c-.432 0-.616.324-.616.972v.304c0 .648.184.972.616.972h.124Zm1.824.276v-.308h.58v-1.908c-.044.064-.144.096-.252.096h-.356v-.308h.316c.18 0 .276-.076.3-.372h.332v2.492h.532v.308h-1.452Zm-19.956 4.032c-.68 0-.952-.464-.952-1.32v-.224c0-.856.272-1.32.952-1.32h.136c.684 0 .952.464.952 1.32v.224c0 .856-.268 1.32-.952 1.32h-.136Zm.132-.308c.436 0 .616-.324.616-.972v-.304c0-.648-.18-.972-.616-.972h-.124c-.432 0-.616.324-.616.972v.304c0 .648.184.972.616.972h.124Zm1.824.276v-.308h.58v-1.908c-.044.064-.144.096-.252.096h-.356v-.308h.316c.18 0 .276-.076.3-.372h.332v2.492h.532v.308h-1.452Zm4.044.032c-.68 0-.952-.464-.952-1.32v-.224c0-.856.272-1.32.952-1.32h.136c.684 0 .952.464.952 1.32v.224c0 .856-.268 1.32-.952 1.32h-.136Zm.132-.308c.436 0 .616-.324.616-.972v-.304c0-.648-.18-.972-.616-.972h-.124c-.432 0-.616.324-.616.972v.304c0 .648.184.972.616.972h.124Zm1.824.276v-.308h.58v-1.908c-.044.064-.144.096-.252.096h-.356v-.308h.316c.18 0 .276-.076.3-.372h.332v2.492h.532v.308h-1.452Zm4.044.032c-.68 0-.952-.464-.952-1.32v-.224c0-.856.272-1.32.952-1.32h.136c.684 0 .952.464.952 1.32v.224c0 .856-.268 1.32-.952 1.32h-.136Zm.132-.308c.436 0 .616-.324.616-.972v-.304c0-.648-.18-.972-.616-.972h-.124c-.432 0-.616.324-.616.972v.304c0 .648.184.972.616.972h.124Zm1.824.276v-.308h.58v-1.908c-.044.064-.144.096-.252.096h-.356v-.308h.316c.18 0 .276-.076.3-.372h.332v2.492h.532v.308h-1.452Zm4.044.032c-.68 0-.952-.464-.952-1.32v-.224c0-.856.272-1.32.952-1.32h.136c.684 0 .952.464.952 1.32v.224c0 .856-.268 1.32-.952 1.32h-.136Zm.132-.308c.436 0 .616-.324.616-.972v-.304c0-.648-.18-.972-.616-.972h-.124c-.432 0-.616.324-.616.972v.304c0 .648.184.972.616.972h.124Zm1.824.276v-.308h.58v-1.908c-.044.064-.144.096-.252.096h-.356v-.308h.316c.18 0 .276-.076.3-.372h.332v2.492h.532v.308h-1.452Zm-19.956 4.032c-.68 0-.952-.464-.952-1.32v-.224c0-.856.272-1.32.952-1.32h.136c.684 0 .952.464.952 1.32v.224c0 .856-.268 1.32-.952 1.32h-.136Zm.132-.308c.436 0 .616-.324.616-.972v-.304c0-.648-.18-.972-.616-.972h-.124c-.432 0-.616.324-.616.972v.304c0 .648.184.972.616.972h.124Zm1.824.276v-.308h.58v-1.908c-.044.064-.144.096-.252.096h-.356v-.308h.316c.18 0 .276-.076.3-.372h.332v2.492h.532v.308h-1.452Zm4.044.032c-.68 0-.952-.464-.952-1.32v-.224c0-.856.272-1.32.952-1.32h.136c.684 0 .952.464.952 1.32v.224c0 .856-.268 1.32-.952 1.32h-.136Zm.132-.308c.436 0 .616-.324.616-.972v-.304c0-.648-.18-.972-.616-.972h-.124c-.432 0-.616.324-.616.972v.304c0 .648.184.972.616.972h.124Zm1.824.276v-.308h.58v-1.908c-.044.064-.144.096-.252.096h-.356v-.308h.316c.18 0 .276-.076.3-.372h.332v2.492h.532v.308h-1.452Zm4.044.032c-.68 0-.952-.464-.952-1.32v-.224c0-.856.272-1.32.952-1.32h.136c.684 0 .952.464.952 1.32v.224c0 .856-.268 1.32-.952 1.32h-.136Zm.132-.308c.436 0 .616-.324.616-.972v-.304c0-.648-.18-.972-.616-.972h-.124c-.432 0-.616.324-.616.972v.304c0 .648.184.972.616.972h.124Zm1.824.276v-.308h.58v-1.908c-.044.064-.144.096-.252.096h-.356v-.308h.316c.18 0 .276-.076.3-.372h.332v2.492h.532v.308h-1.452Zm4.044.032c-.68 0-.952-.464-.952-1.32v-.224c0-.856.272-1.32.952-1.32h.136c.684 0 .952.464.952 1.32v.224c0 .856-.268 1.32-.952 1.32h-.136Zm.132-.308c.436 0 .616-.324.616-.972v-.304c0-.648-.18-.972-.616-.972h-.124c-.432 0-.616.324-.616.972v.304c0 .648.184.972.616.972h.124Zm1.824.276v-.308h.58v-1.908c-.044.064-.144.096-.252.096h-.356v-.308h.316c.18 0 .276-.076.3-.372h.332v2.492h.532v.308h-1.452Zm-19.956 4.032c-.68 0-.952-.464-.952-1.32v-.224c0-.856.272-1.32.952-1.32h.136c.684 0 .952.464.952 1.32v.224c0 .856-.268 1.32-.952 1.32h-.136Zm.132-.308c.436 0 .616-.324.616-.972v-.304c0-.648-.18-.972-.616-.972h-.124c-.432 0-.616.324-.616.972v.304c0 .648.184.972.616.972h.124Zm1.824.276v-.308h.58v-1.908c-.044.064-.144.096-.252.096h-.356v-.308h.316c.18 0 .276-.076.3-.372h.332v2.492h.532v.308h-1.452Zm4.044.032c-.68 0-.952-.464-.952-1.32v-.224c0-.856.272-1.32.952-1.32h.136c.684 0 .952.464.952 1.32v.224c0 .856-.268 1.32-.952 1.32h-.136Zm.132-.308c.436 0 .616-.324.616-.972v-.304c0-.648-.18-.972-.616-.972h-.124c-.432 0-.616.324-.616.972v.304c0 .648.184.972.616.972h.124Zm1.824.276v-.308h.58v-1.908c-.044.064-.144.096-.252.096h-.356v-.308h.316c.18 0 .276-.076.3-.372h.332v2.492h.532v.308h-1.452Zm4.044.032c-.68 0-.952-.464-.952-1.32v-.224c0-.856.272-1.32.952-1.32h.136c.684 0 .952.464.952 1.32v.224c0 .856-.268 1.32-.952 1.32h-.136Zm.132-.308c.436 0 .616-.324.616-.972v-.304c0-.648-.18-.972-.616-.972h-.124c-.432 0-.616.324-.616.972v.304c0 .648.184.972.616.972h.124Zm1.824.276v-.308h.58v-1.908c-.044.064-.144.096-.252.096h-.356v-.308h.316c.18 0 .276-.076.3-.372h.332v2.492h.532v.308h-1.452Zm4.044.032c-.68 0-.952-.464-.952-1.32v-.224c0-.856.272-1.32.952-1.32h.136c.684 0 .952.464.952 1.32v.224c0 .856-.268 1.32-.952 1.32h-.136Zm.132-.308c.436 0 .616-.324.616-.972v-.304c0-.648-.18-.972-.616-.972h-.124c-.432 0-.616.324-.616.972v.304c0 .648.184.972.616.972h.124Zm1.824.276v-.308h.58v-1.908c-.044.064-.144.096-.252.096h-.356v-.308h.316c.18 0 .276-.076.3-.372h.332v2.492h.532v.308h-1.452Zm-19.956 4.032c-.68 0-.952-.464-.952-1.32v-.224c0-.856.272-1.32.952-1.32h.136c.684 0 .952.464.952 1.32v.224c0 .856-.268 1.32-.952 1.32h-.136Zm.132-.308c.436 0 .616-.324.616-.972v-.304c0-.648-.18-.972-.616-.972h-.124c-.432 0-.616.324-.616.972v.304c0 .648.184.972.616.972h.124Zm1.824.276v-.308h.58v-1.908c-.044.064-.144.096-.252.096h-.356v-.308h.316c.18 0 .276-.076.3-.372h.332v2.492h.532v.308h-1.452Zm4.044.032c-.68 0-.952-.464-.952-1.32v-.224c0-.856.272-1.32.952-1.32h.136c.684 0 .952.464.952 1.32v.224c0 .856-.268 1.32-.952 1.32h-.136Zm.132-.308c.436 0 .616-.324.616-.972v-.304c0-.648-.18-.972-.616-.972h-.124c-.432 0-.616.324-.616.972v.304c0 .648.184.972.616.972h.124Zm1.824.276v-.308h.58v-1.908c-.044.064-.144.096-.252.096h-.356v-.308h.316c.18 0 .276-.076.3-.372h.332v2.492h.532v.308h-1.452Zm4.044.032c-.68 0-.952-.464-.952-1.32v-.224c0-.856.272-1.32.952-1.32h.136c.684 0 .952.464.952 1.32v.224c0 .856-.268 1.32-.952 1.32h-.136Zm.132-.308c.436 0 .616-.324.616-.972v-.304c0-.648-.18-.972-.616-.972h-.124c-.432 0-.616.324-.616.972v.304c0 .648.184.972.616.972h.124Zm1.824.276v-.308h.58v-1.908c-.044.064-.144.096-.252.096h-.356v-.308h.316c.18 0 .276-.076.3-.372h.332v2.492h.532v.308h-1.452Zm4.044.032c-.68 0-.952-.464-.952-1.32v-.224c0-.856.272-1.32.952-1.32h.136c.684 0 .952.464.952 1.32v.224c0 .856-.268 1.32-.952 1.32h-.136Zm.132-.308c.436 0 .616-.324.616-.972v-.304c0-.648-.18-.972-.616-.972h-.124c-.432 0-.616.324-.616.972v.304c0 .648.184.972.616.972h.124Zm1.824.276v-.308h.58v-1.908c-.044.064-.144.096-.252.096h-.356v-.308h.316c.18 0 .276-.076.3-.372h.332v2.492h.532v.308h-1.452Z"/><path fill="#F600FF" d="M274 415h12v16h-12z"/><path fill="#FEF5FE" d="M278.557 426.019h3.038a.736.736 0 0 0 .541-.218.734.734 0 0 0 .218-.542v-2.278a.732.732 0 0 0-.218-.541.732.732 0 0 0-.541-.218v-.76c0-.418-.149-.775-.446-1.073a1.465 1.465 0 0 0-1.073-.446c-.418 0-.775.149-1.073.446a1.465 1.465 0 0 0-.446 1.073v.76a.732.732 0 0 0-.541.218.733.733 0 0 0-.219.541v2.278c0 .216.073.396.219.542a.736.736 0 0 0 .541.218Zm.759-3.797v-.76c0-.215.073-.396.219-.541a.732.732 0 0 1 .541-.218c.215 0 .396.072.541.218a.732.732 0 0 1 .218.541v.76h-1.519Zm.76 8.278a1.466 1.466 0 0 1-.475-.076c-1.709-.57-3.069-1.623-4.082-3.161S274 424.07 274 422.297v-3.588c0-.317.092-.601.275-.855.184-.253.421-.436.712-.55l4.557-1.709c.178-.063.355-.095.532-.095.177 0 .354.032.532.095l4.557 1.709c.291.114.528.297.712.55.183.254.275.538.275.855v3.588c0 1.773-.506 3.428-1.519 4.966-1.013 1.538-2.374 2.591-4.082 3.161a1.466 1.466 0 0 1-.475.076Z"/></g><path stroke="#F600FF" d="M267.5 410.5h25v25h-25z"/></g><defs><clipPath id="a"><rect width="560" height="478" fill="#fff" rx="16"/></clipPath><clipPath id="d"><path fill="#fff" d="M268 347h24v24h-24z"/></clipPath><clipPath id="e"><path fill="#fff" d="M268 411h24v24h-24z"/></clipPath><linearGradient id="b" x1="417.023" x2="433.014" y1="272.874" y2="288.961" gradientUnits="userSpaceOnUse"><stop stop-color="#387EB8"/><stop offset="1" stop-color="#366994"/></linearGradient><linearGradient id="c" x1="423.499" x2="436.289" y1="279.791" y2="292.045" gradientUnits="userSpaceOnUse"><stop stop-color="#FFE052"/><stop offset="1" stop-color="#FFC331"/></linearGradient></defs></svg>