<svg width="37" height="37" viewBox="0 0 37 37" fill="none" xmlns="http://www.w3.org/2000/svg">
<path d="M18.4546 0.482228C16.9849 0.489057 15.5814 0.6144 14.3464 0.832923C10.7085 1.47564 10.0479 2.82089 10.0479 5.30177V8.57826H18.645V9.67042H10.0479H6.82155C4.32301 9.67042 2.13522 11.1722 1.45091 14.0291C0.661567 17.3037 0.626556 19.3471 1.45091 22.7663C2.06202 25.3115 3.52143 27.125 6.01996 27.125H8.97581V23.1972C8.97581 20.3596 11.431 17.8566 14.3464 17.8566H22.9334C25.3238 17.8566 27.232 15.8885 27.232 13.488V5.30177C27.232 2.97193 25.2665 1.22176 22.9334 0.832923C21.4566 0.587084 19.9243 0.475399 18.4546 0.482228ZM13.8054 3.11745C14.6934 3.11745 15.4186 3.85447 15.4186 4.7607C15.4186 5.66371 14.6934 6.39393 13.8054 6.39393C12.9142 6.39393 12.1922 5.66371 12.1922 4.7607C12.1922 3.85447 12.9142 3.11745 13.8054 3.11745Z" fill="#7AC2FA"/>
<path d="M28.3042 9.67041V13.488C28.3042 16.4477 25.795 18.9388 22.9336 18.9388H14.3466C11.9945 18.9388 10.0481 20.9519 10.0481 23.3074V31.4936C10.0481 33.8235 12.0741 35.1938 14.3466 35.8623C17.0679 36.6624 19.6776 36.8071 22.9336 35.8623C25.0979 35.2356 27.2321 33.9745 27.2321 31.4936V28.2171H18.6451V27.125H27.2321H31.5306C34.0292 27.125 34.9602 25.3822 35.8291 22.7663C36.7267 20.0734 36.6885 17.4836 35.8291 14.029C35.2117 11.5417 34.0323 9.67041 31.5306 9.67041H28.3042ZM23.4747 30.4015C24.3659 30.4015 25.0879 31.1317 25.0879 32.0347C25.0879 32.9409 24.3659 33.6779 23.4747 33.6779C22.5867 33.6779 21.8615 32.9409 21.8615 32.0347C21.8615 31.1317 22.5867 30.4015 23.4747 30.4015Z" fill="url(#paint0_linear_685_1231)"/>
<defs>
<linearGradient id="paint0_linear_685_1231" x1="23.2681" y1="31.7592" x2="16.1561" y2="21.7932" gradientUnits="userSpaceOnUse">
<stop stop-color="#FFD43B"/>
<stop offset="1" stop-color="#FFE873"/>
</linearGradient>
</defs>
</svg>
